
<global>
ampeg_attack=0.002
ampeg_release=0.035
</global>

<group>
group_label=Group

<region>
hikey=D#3
hivel=127
lokey=D3
lovel=1
offset=8219
pitch_keycenter=D3
sample=om28_Plop_MF_D3.opus
</region>

<region>
hikey=C#3
hivel=127
lokey=C3
lovel=1
offset=5554
pitch_keycenter=C3
sample=om28_Plop_MF_C3.opus
</region>

<region>
hikey=D#4
hivel=127
lokey=D4
lovel=1
offset=3839
pitch_keycenter=D4
sample=om28_Plop_MF_D4.opus
</region>

<region>
hikey=D#5
hivel=127
lokey=D5
lovel=1
offset=6568
pitch_keycenter=D5
sample=om28_Plop_MF_D5.opus
</region>

<region>
hikey=F2
hivel=127
lokey=C2
lovel=1
offset=6
pitch_keycenter=E2
sample=om28_Plop_MF_E2.opus
</region>

<region>
hikey=G2
hivel=127
lokey=F#2
lovel=1
offset=5969
pitch_keycenter=F#2
sample=om28_Plop_MF_F#2.opus
</region>

<region>
hikey=G#4
hivel=127
lokey=F#4
lovel=1
offset=6253
pitch_keycenter=F#4
sample=om28_Plop_MF_F#4.opus
</region>

<region>
hikey=B3
hivel=127
lokey=A3
lovel=1
offset=7947
pitch_keycenter=A#3
sample=om28_Plop_MF_A#3.opus
</region>

<region>
hikey=B2
hivel=127
lokey=A#2
lovel=1
offset=3997
pitch_keycenter=A#2
sample=om28_Plop_MF_A#2.opus
</region>

<region>
hikey=C6
hivel=127
lokey=E5
lovel=1
offset=3317
pitch_keycenter=E5
sample=om28_Plop_MF_E5.opus
</region>

<region>
hikey=A2
hivel=127
lokey=G#2
lovel=1
offset=1811
pitch_keycenter=G#2
sample=om28_Plop_MF_G#2.opus
</region>

<region>
hikey=F3
hivel=127
lokey=E3
lovel=1
offset=1232
pitch_keycenter=E3
sample=om28_Plop_MF_E3.opus
</region>

<region>
hikey=C#4
hivel=127
lokey=C4
lovel=1
offset=2658
sample=om28_Plop_MF_C4.opus
</region>

<region>
hikey=G#3
hivel=127
lokey=F#3
lovel=1
offset=7692
pitch_keycenter=F#3
sample=om28_Plop_MF_F#3.opus
</region>

<region>
hikey=B4
hivel=127
lokey=A4
lovel=1
offset=6435
pitch_keycenter=A#4
sample=om28_Plop_MF_A#4.opus
</region>

<region>
hikey=F4
hivel=127
lokey=E4
lovel=1
offset=2202
pitch_keycenter=E4
sample=om28_Plop_MF_E4.opus
</region>

<region>
hikey=C#5
hivel=127
lokey=C5
lovel=1
offset=3949
pitch_keycenter=C5
sample=om28_Plop_MF_C5.opus
</region>
</group>